<?xml version="1.0" encoding="UTF-8" standalone="no"?>
<!DOCTYPE svg PUBLIC "-//W3C//DTD SVG 1.1//EN" "http://www.w3.org/Graphics/SVG/1.1/DTD/svg11.dtd">
<svg width="100%" height="100%" viewBox="0 0 135 137" version="1.1" xmlns="http://www.w3.org/2000/svg" xmlns:xlink="http://www.w3.org/1999/xlink" xml:space="preserve" xmlns:serif="http://www.serif.com/" style="fill-rule:evenodd;clip-rule:evenodd;stroke-linecap:round;stroke-linejoin:round;stroke-miterlimit:1.5;">
    <g id="Artboard2" transform="matrix(0.39823,0,0,0.622727,-265.221,-438.4)">
        <rect x="666" y="704" width="339" height="220" style="fill:none;"/>
        <g transform="matrix(0.410015,0,0,0.262202,610.169,700.175)">
            <path d="M201,516C201,516 188.767,185.614 502.5,210C502.5,210 1050.29,254.409 814,592C762.073,666.19 126.376,1066.05 348,156C348,156 366.357,54.057 476,80C476,80 1196.5,154.333 579,754C527.719,803.8 167.499,951.079 281,462C281,462 361.575,177.697 579,344C579,344 766.493,540.34 785,675" style="fill:none;stroke:rgb(3,0,0);stroke-width:19px;"/>
        </g>
    </g>
</svg>
